<svg width="66" height="66" viewBox="0 0 66 66" fill="none" xmlns="http://www.w3.org/2000/svg">
<path fill-rule="evenodd" clip-rule="evenodd" d="M0.5 32.75C0.5 50.8373 15.1627 65.5 33.25 65.5C51.3373 65.5 66 50.8373 66 32.75C66 14.6627 51.3373 0 33.25 0C15.1627 0 0.5 14.6627 0.5 32.75ZM27.2477 47.7604L27.805 39.4122L27.8045 39.4119L42.9908 25.7074C43.6573 25.1158 42.8453 24.8274 41.9605 25.3639L23.2185 37.188L15.123 34.6613C13.3747 34.126 13.3622 32.9246 15.5155 32.0609L47.0619 19.8968C48.5027 19.2426 49.8934 20.2428 49.3433 22.4481L43.971 47.7646C43.5958 49.5637 42.5088 49.9939 41.0027 49.1629L32.8189 43.1166L28.8852 46.9416C28.8728 46.9537 28.8605 46.9657 28.8482 46.9777C28.4083 47.406 28.0443 47.7604 27.2477 47.7604Z" fill="#C6F656"/>
</svg>
