<svg width="38" height="44" viewBox="0 0 38 44" fill="none" xmlns="http://www.w3.org/2000/svg">
<path d="M36.0165 16.466V31.7647L18.9999 41.5874L1.97403 31.7647V12.1099L18.9999 2.27772L32.0779 9.83217L34.052 8.69331L18.9999 0L0 10.971V32.9036L18.9999 43.8746L38 32.9036V15.3272L36.0165 16.466Z" fill="url(#paint0_linear_240_104)"/>
<path d="M14.2378 31.7743H11.3906V22.2268H20.8812C21.7791 22.2169 22.6369 21.8538 23.2692 21.2161C23.9015 20.5786 24.2574 19.7177 24.2598 18.8196C24.2649 18.3757 24.1792 17.9353 24.0079 17.5257C23.8364 17.1159 23.5831 16.7457 23.2632 16.4376C22.9537 16.1196 22.5833 15.8674 22.1739 15.6962C21.7646 15.5248 21.3248 15.4381 20.8812 15.441H11.3906V12.537H20.8906C22.5538 12.5469 24.1461 13.2121 25.3222 14.3881C26.4982 15.5642 27.1634 17.1565 27.1733 18.8196C27.1835 20.0928 26.7953 21.3372 26.063 22.3786C25.389 23.375 24.4392 24.1534 23.3297 24.6183C22.2311 24.9668 21.0846 25.1398 19.932 25.1309H14.2378V31.7743Z" fill="url(#paint1_linear_240_104)"/>
<path d="M27.1068 31.537H23.785L21.2227 27.067C22.2364 27.0049 23.2364 26.8005 24.1931 26.4597L27.1068 31.537Z" fill="url(#paint2_linear_240_104)"/>
<path d="M34.0312 13.2867L35.9957 14.3782L37.9604 13.2867V10.9805L35.9957 9.84167L34.0312 10.9805V13.2867Z" fill="url(#paint3_linear_240_104)"/>
<defs>
<linearGradient id="paint0_linear_240_104" x1="37.9663" y1="10.9831" x2="-2.32404" y2="27.0951" gradientUnits="userSpaceOnUse">
<stop stop-color="#C200FB"/>
<stop offset="0.489658" stop-color="#3772FF"/>
<stop offset="0.489758" stop-color="#3773FE"/>
<stop offset="1" stop-color="#5AC4BE"/>
</linearGradient>
<linearGradient id="paint1_linear_240_104" x1="37.9684" y1="10.9831" x2="-2.32202" y2="27.0951" gradientUnits="userSpaceOnUse">
<stop stop-color="#C200FB"/>
<stop offset="0.489658" stop-color="#3772FF"/>
<stop offset="0.489758" stop-color="#3773FE"/>
<stop offset="1" stop-color="#5AC4BE"/>
</linearGradient>
<linearGradient id="paint2_linear_240_104" x1="37.9682" y1="10.9832" x2="-2.32217" y2="27.0952" gradientUnits="userSpaceOnUse">
<stop stop-color="#C200FB"/>
<stop offset="0.489658" stop-color="#3772FF"/>
<stop offset="0.489758" stop-color="#3773FE"/>
<stop offset="1" stop-color="#5AC4BE"/>
</linearGradient>
<linearGradient id="paint3_linear_240_104" x1="37.9647" y1="10.9831" x2="-2.32572" y2="27.0951" gradientUnits="userSpaceOnUse">
<stop stop-color="#C200FB"/>
<stop offset="0.489658" stop-color="#3772FF"/>
<stop offset="0.489758" stop-color="#3773FE"/>
<stop offset="1" stop-color="#5AC4BE"/>
</linearGradient>
</defs>
</svg>
