<svg width="48" height="48" viewBox="0 0 48 48" fill="none" xmlns="http://www.w3.org/2000/svg">
<path fill-rule="evenodd" clip-rule="evenodd" d="M0 24C0 37.2548 10.7452 48 24 48C37.2548 48 48 37.2548 48 24C48 10.7452 37.2548 0 24 0C10.7452 0 0 10.7452 0 24ZM19.6004 35L20.0088 28.8823L20.0084 28.882L31.1373 18.839C31.6258 18.4055 31.0307 18.1941 30.3823 18.5873L16.6477 27.2523L10.7151 25.4007C9.43393 25.0084 9.42473 24.128 11.0027 23.4951L34.1207 14.5809C35.1766 14.1015 36.1957 14.8345 35.7926 16.4505L31.8556 35.0031C31.5807 36.3215 30.7841 36.6368 29.6804 36.0278L23.6831 31.5969L20.8004 34.4C20.7913 34.4088 20.7823 34.4176 20.7733 34.4264C20.4509 34.7403 20.1841 35 19.6004 35Z" fill="#0E2107"/>
</svg>
