<svg width="39" height="44" viewBox="0 0 39 44" fill="none" xmlns="http://www.w3.org/2000/svg">
<g clip-path="url(#clip0_420_417)">
<path d="M15.4019 10.0784C14.9278 10.0107 14.9052 9.98808 15.131 9.9655C15.56 9.89777 16.5534 9.98808 17.2534 10.1461C18.879 10.53 20.3467 11.5234 21.9046 13.262L22.311 13.7362L22.8981 13.6458C25.4043 13.2394 27.9783 13.5555 30.1233 14.549C30.7103 14.8199 31.636 15.3618 31.7489 15.4973C31.7941 15.5424 31.8618 15.836 31.907 16.1295C32.065 17.1907 31.9973 17.981 31.6586 18.5906C31.478 18.9293 31.478 19.0196 31.5909 19.3131C31.6812 19.5389 31.9521 19.6969 32.2005 19.6969C32.7424 19.6969 33.3069 18.8389 33.5778 17.6423L33.6907 17.1681L33.8939 17.3939C35.0454 18.6809 35.9486 20.4646 36.084 21.729L36.1292 22.0677L35.926 21.7742C35.5873 21.2549 35.2712 20.9162 34.8422 20.6227C34.0745 20.1034 33.2617 19.9453 31.1167 19.8324C29.1749 19.7195 28.0686 19.5615 26.9848 19.2002C25.1334 18.5906 24.185 17.8003 21.9949 14.8877C21.024 13.6007 20.4144 12.9007 19.8048 12.3137C18.4726 11.0267 17.1405 10.3493 15.4019 10.0784Z" fill="#FF007A"/>
<path d="M32.2252 12.946C32.2704 12.088 32.3833 11.5235 32.6316 11.0042C32.722 10.801 32.8123 10.6204 32.8348 10.6204C32.8574 10.6204 32.8123 10.7784 32.7445 10.959C32.5639 11.4558 32.5413 12.1557 32.6542 12.946C32.8123 13.962 32.88 14.0975 33.9638 15.2038C34.4605 15.7232 35.0476 16.3779 35.2734 16.6489L35.6572 17.1456L35.2734 16.7844C34.7992 16.3328 33.7154 15.4748 33.4671 15.3619C33.309 15.2716 33.2864 15.2716 33.1735 15.3845C33.0832 15.4748 33.0606 15.6103 33.0606 16.265C33.0381 17.2811 32.9026 17.9133 32.5639 18.5681C32.3833 18.9068 32.3607 18.839 32.5187 18.4552C32.6316 18.1617 32.6542 18.0262 32.6542 17.0553C32.6542 15.0909 32.4284 14.6168 31.0511 13.8265C30.7124 13.6233 30.1254 13.3298 29.7867 13.1718C29.4255 13.0137 29.1545 12.8782 29.1771 12.8782C29.2223 12.8331 30.5544 13.2169 31.0737 13.4427C31.864 13.7588 31.9994 13.7814 32.0898 13.7588C32.1575 13.6911 32.2026 13.5104 32.2252 12.946Z" fill="#FF007A"/>
<path d="M16.328 16.3101C15.3797 15.0006 14.77 12.9685 14.9055 11.4557L14.9507 10.9816L15.1765 11.0267C15.5829 11.0945 16.2828 11.3654 16.6215 11.5686C17.5246 12.1105 17.9311 12.8556 18.3149 14.7071C18.4278 15.2489 18.5858 15.8812 18.6536 16.0844C18.7665 16.423 19.1955 17.2133 19.5567 17.71C19.8051 18.0713 19.647 18.2519 19.0826 18.2068C18.2246 18.1164 17.0731 17.3262 16.328 16.3101Z" fill="#FF007A"/>
<path d="M31.0706 26.1319C26.6 24.3256 25.0195 22.7677 25.0195 20.126C25.0195 19.7421 25.0421 19.426 25.0421 19.426C25.0647 19.426 25.2227 19.5615 25.4259 19.7195C26.3291 20.4421 27.3451 20.7582 30.1675 21.1646C31.8157 21.413 32.764 21.5936 33.622 21.8871C36.3541 22.7903 38.0475 24.6417 38.4539 27.1479C38.5668 27.8705 38.499 29.2478 38.3184 29.9703C38.1604 30.5348 37.7088 31.5734 37.5959 31.596C37.5733 31.596 37.5281 31.4831 37.5281 31.3024C37.483 30.3541 37.0088 29.451 36.2186 28.751C35.2703 27.9382 34.051 27.3286 31.0706 26.1319Z" fill="#FF007A"/>
<path d="M27.9105 26.877C27.8654 26.5383 27.7525 26.1093 27.6847 25.9287L27.5719 25.59L27.7751 25.8384C28.0686 26.1771 28.2944 26.5835 28.4976 27.148C28.6556 27.577 28.6556 27.7124 28.6556 28.4124C28.6556 29.0897 28.6331 29.2478 28.4976 29.6316C28.2718 30.2412 28.0009 30.6702 27.5493 31.1444C26.7364 31.9798 25.6752 32.4314 24.1625 32.6346C23.8915 32.6572 23.1238 32.7249 22.4465 32.7701C20.7531 32.8604 19.6241 33.041 18.6081 33.4023C18.4726 33.4474 18.3372 33.4926 18.3146 33.47C18.2694 33.4248 18.9694 33.0184 19.5338 32.7475C20.3241 32.3636 21.1369 32.1604 22.9206 31.8443C23.8012 31.7089 24.7044 31.5282 24.9301 31.4379C27.1654 30.738 28.2718 28.9994 27.9105 26.877Z" fill="#FF007A"/>
<path d="M29.963 30.5122C29.3759 29.2252 29.2405 28.006 29.5566 26.8544C29.6017 26.7416 29.6469 26.6287 29.6921 26.6287C29.7372 26.6287 29.8727 26.6964 30.0082 26.7867C30.2791 26.9673 30.8436 27.2834 32.2886 28.0737C34.1175 29.0672 35.1561 29.8348 35.8786 30.7154C36.5108 31.4831 36.8947 32.3637 37.0753 33.4474C37.1882 34.0571 37.1205 35.5247 36.9624 36.1343C36.4657 38.0535 35.3367 39.5889 33.6885 40.4694C33.4401 40.6049 33.2369 40.6952 33.2143 40.6952C33.1918 40.6952 33.2821 40.4694 33.4175 40.1985C33.9594 39.047 34.0272 37.9406 33.6207 36.6988C33.3724 35.9311 32.8531 35.0054 31.8145 33.4474C30.5726 31.6411 30.2791 31.167 29.963 30.5122Z" fill="#FF007A"/>
<path d="M13.1421 37.4213C14.8129 36.0214 16.8676 35.0279 18.7642 34.7118C19.5771 34.5764 20.9318 34.6215 21.6769 34.8247C22.8736 35.1408 23.9573 35.8182 24.5218 36.6536C25.0637 37.4664 25.3121 38.1664 25.5604 39.7243C25.6507 40.3339 25.7636 40.9661 25.7862 41.1016C25.9668 41.9145 26.3281 42.5467 26.7797 42.8853C27.4796 43.4046 28.6989 43.4272 29.8955 42.9757C30.0987 42.9079 30.2794 42.8402 30.2794 42.8628C30.3245 42.9079 29.7149 43.3143 29.3085 43.5175C28.744 43.8111 28.2924 43.9014 27.6828 43.9014C26.599 43.9014 25.6733 43.3369 24.9282 42.208C24.7702 41.9822 24.4541 41.3274 24.1831 40.7178C23.3929 38.8889 22.9864 38.347 22.0607 37.7374C21.2479 37.2181 20.2093 37.1052 19.419 37.489C18.3804 37.9858 18.1094 39.3179 18.832 40.1307C19.1255 40.4694 19.6674 40.7404 20.1189 40.8081C20.9544 40.921 21.6769 40.2662 21.6769 39.4308C21.6769 38.8889 21.4737 38.5728 20.9318 38.3244C20.2093 38.0083 19.419 38.3696 19.4416 39.0695C19.4416 39.3631 19.5771 39.5437 19.8706 39.6792C20.0512 39.7695 20.0512 39.7695 19.9157 39.7469C19.261 39.6114 19.1029 38.7986 19.6222 38.2793C20.2544 37.6471 21.5866 37.918 22.0381 38.7986C22.2188 39.1598 22.2413 39.8824 22.0833 40.3339C21.6995 41.3274 20.6157 41.8467 19.5093 41.5532C18.7642 41.35 18.4481 41.1468 17.545 40.221C15.9645 38.5954 15.3548 38.2793 13.097 37.9406L12.668 37.8729L13.1421 37.4213Z" fill="#FF007A"/>
<path fill-rule="evenodd" clip-rule="evenodd" d="M1.26868 1.0921C6.52952 7.48188 14.6353 17.4165 15.0417 17.9584C15.3804 18.41 15.2449 18.839 14.6804 19.1551C14.3643 19.3357 13.7096 19.5163 13.3935 19.5163C13.0322 19.5163 12.6032 19.3357 12.3097 19.0422C12.1065 18.839 11.2259 17.552 9.23897 14.4587C7.7262 12.0879 6.43921 10.1236 6.41663 10.101C6.32632 10.0559 6.32632 10.0559 9.08092 14.978C10.8195 18.0713 11.384 19.1777 11.384 19.3131C11.384 19.6067 11.2936 19.7647 10.9324 20.1711C10.3228 20.8485 10.0518 21.6162 9.8486 23.2193C9.62281 25.003 9.01319 26.2674 7.27462 28.4124C6.25858 29.6768 6.10053 29.9026 5.85216 30.4219C5.53606 31.0541 5.44575 31.4153 5.40059 32.2282C5.35543 33.0862 5.44575 33.628 5.69411 34.4409C5.9199 35.1634 6.16827 35.6376 6.77789 36.5633C7.2972 37.3761 7.6133 37.9857 7.6133 38.2115C7.6133 38.3922 7.65846 38.3922 8.4713 38.2115C10.4131 37.76 12.0162 36.9923 12.8967 36.044C13.4386 35.4569 13.5741 35.1408 13.5741 34.328C13.5741 33.8087 13.5515 33.6958 13.416 33.3797C13.1903 32.8829 12.7613 32.4765 11.8355 31.8443C10.6163 31.0089 10.097 30.3316 9.96149 29.4284C9.8486 28.6607 9.98407 28.1414 10.6614 26.719C11.3614 25.2513 11.542 24.6417 11.6549 23.1515C11.7226 22.2032 11.8355 21.8194 12.1065 21.5259C12.4 21.2097 12.6484 21.0969 13.3483 21.0065C14.4998 20.8485 15.2449 20.555 15.832 19.9905C16.3513 19.5163 16.5771 19.0422 16.5996 18.3422L16.6222 17.8229L16.3287 17.5068C15.2675 16.2876 0.568741 0.121216 0.501004 0.121216C0.478426 0.121216 0.839685 0.550212 1.26868 1.0921ZM8.20035 33.1991C8.44872 32.7701 8.31324 32.2282 7.90683 31.9572C7.52299 31.7089 6.93594 31.8217 6.93594 32.1604C6.93594 32.2507 6.9811 32.3411 7.11657 32.3862C7.31978 32.4991 7.34236 32.612 7.18431 32.8604C7.02626 33.1087 7.02626 33.3345 7.22947 33.4926C7.54557 33.7409 7.97456 33.6055 8.20035 33.1991Z" fill="#FF007A"/>
<path fill-rule="evenodd" clip-rule="evenodd" d="M17.3434 21.3227C16.8015 21.4808 16.2822 22.0678 16.1242 22.6549C16.0338 23.0161 16.079 23.6709 16.237 23.8741C16.4854 24.1902 16.7112 24.2805 17.3434 24.2805C18.5852 24.2805 19.6464 23.7386 19.7593 23.0838C19.8722 22.542 19.3981 21.7969 18.7433 21.4582C18.4046 21.2776 17.7047 21.2098 17.3434 21.3227ZM18.7884 22.4516C18.9691 22.1807 18.9013 21.8872 18.5627 21.684C17.953 21.3001 17.0273 21.6162 17.0273 22.2033C17.0273 22.4968 17.5015 22.8129 17.953 22.8129C18.2466 22.8129 18.653 22.6323 18.7884 22.4516Z" fill="#FF007A"/>
</g>
<defs>
<clipPath id="clip0_420_417">
<rect width="38" height="43.7576" fill="white" transform="translate(0.5 0.121216)"/>
</clipPath>
</defs>
</svg>
