<svg width="86" height="102" viewBox="0 0 86 102" fill="none" xmlns="http://www.w3.org/2000/svg">
<g clip-path="url(#clip0_218_1198)">
<path fill-rule="evenodd" clip-rule="evenodd" d="M51.2539 36.0771C54.3519 34.5322 58.294 32.2582 62.2408 29.1426C63.0729 30.8707 63.1641 32.3787 62.7354 33.5964C62.4315 34.4546 61.859 35.201 61.1061 35.7948C60.2908 36.4366 59.2727 36.9038 58.1471 37.1563C56.0115 37.6374 53.5181 37.3565 51.2539 36.0771ZM51.791 51.9054L55.892 54.2743C47.5184 58.9675 45.242 67.6821 42.5379 76.1701C39.8341 67.6821 37.5574 58.9675 29.1841 54.2743L33.2852 51.9054C33.6819 51.7555 34.021 51.4838 34.2539 51.1293C34.4868 50.7749 34.6015 50.3558 34.5816 49.9322C34.2058 41.9829 36.3522 38.4675 39.2474 36.2604C40.2858 35.4697 41.4195 35.0727 42.5379 35.0727C43.6564 35.0727 44.79 35.4697 45.8288 36.2604C48.7239 38.4675 50.8703 41.9829 50.4946 49.9322C50.4747 50.3558 50.5894 50.7749 50.8223 51.1293C51.0552 51.4838 51.3942 51.7555 51.791 51.9054ZM42.5379 0C47.2784 0.127272 52.0307 1.04755 56.155 2.8378C59.011 4.07912 61.676 5.7188 64.0891 7.67953C65.1788 8.5647 66.0762 9.41982 67.0646 10.4042C69.7306 10.4964 73.6267 7.53471 75.4355 4.76342C72.3226 14.9688 58.1174 27.0205 48.2831 31.632C48.279 31.6303 48.2763 31.6279 48.2733 31.6259C46.5083 30.2783 44.5233 29.6044 42.5379 29.6044C40.5525 29.6044 38.5678 30.2783 36.8029 31.6259C36.7999 31.6276 36.7972 31.6306 36.7931 31.632C26.9584 27.0205 12.7536 14.9688 9.64062 4.76342C11.4491 7.53471 15.3452 10.4964 18.0112 10.4042C19 9.42016 19.8973 8.5647 20.9867 7.67953C23.3998 5.7188 26.0648 4.07912 28.9208 2.8378C33.0455 1.04755 37.7978 0.127272 42.5379 0ZM33.822 36.0771C30.7242 34.5322 26.7818 32.2582 22.8354 29.1426C22.0032 30.8707 21.9121 32.3787 22.3405 33.5964C22.6447 34.4546 23.2172 35.201 23.9697 35.7948C24.7853 36.4366 25.8035 36.9038 26.929 37.1563C29.0646 37.6374 31.5577 37.3565 33.822 36.0771Z" fill="white"/>
<path fill-rule="evenodd" clip-rule="evenodd" d="M66.5619 25.3243C68.7347 23.1317 70.6491 20.7047 72.1886 18.5391L72.9704 20.0106C75.4875 25.0465 76.7953 30.0621 76.7953 35.7066L76.7899 44.6636L76.8372 49.3068C77.0195 60.7059 79.4859 72.2391 85.0731 82.7935L73.3833 73.3673L65.112 86.7896L56.4224 78.6094L42.5365 101.143L28.6507 78.6098L19.9615 86.79L11.6901 73.3677L0 82.7939C5.58714 72.2394 8.05359 60.7063 8.23622 49.3072L8.28349 44.6639L8.27808 35.7069C8.27808 30.0621 9.58558 25.0465 12.1033 20.011L12.8849 18.5394C14.4243 20.705 16.3384 23.1317 18.5115 25.3247L17.8329 26.7341C16.5146 29.4716 16.0781 32.5326 17.1051 35.4436C17.7671 37.3186 18.9753 38.9266 20.533 40.154C22.0454 41.3461 23.8353 42.1495 25.7093 42.5715C26.93 42.8463 28.1737 42.9594 29.4093 42.9209C29.121 44.5552 28.9951 46.2503 28.987 47.9774L17.9599 54.3464L26.4692 59.1162C27.1493 59.4975 27.7968 59.9344 28.405 60.4224C35.4204 66.7211 39.6383 85.3552 42.5369 94.457C45.4358 85.3552 49.6533 66.7211 56.6691 60.4224C57.2773 59.9343 57.9247 59.4975 58.6049 59.1162L67.1142 54.3464L56.0868 47.9774C56.0787 46.2503 55.9528 44.5552 55.6645 42.9209C56.9001 42.9594 58.1437 42.8463 59.3645 42.5715C61.2384 42.1495 63.0287 41.3461 64.5408 40.154C66.0981 38.9266 67.3066 37.3186 67.9683 35.4436C68.9956 32.5326 68.5588 29.472 67.2408 26.7341L66.5623 25.3247L66.5619 25.3243Z" fill="white"/>
</g>
<defs>
<clipPath id="clip0_218_1198">
<rect width="85.0731" height="101.277" fill="white"/>
</clipPath>
</defs>
</svg>
