<svg width="65" height="75" viewBox="0 0 65 75" fill="none" xmlns="http://www.w3.org/2000/svg">
<path d="M60.8883 27.9114V53.8441L32.1207 70.4943L3.33724 53.8441V20.5273L32.1207 3.86093L54.23 16.6664L57.5672 14.7359L32.1207 0L0 18.5969V55.7746L32.1207 74.3714L64.2416 55.7746V25.9809L60.8883 27.9114Z" fill="url(#paint0_linear_125_568)"/>
<path d="M24.0672 53.8609H19.2539V37.6771H35.2983C36.8163 37.6602 38.2665 37.0448 39.3355 35.9639C40.4045 34.8832 41.006 33.4239 41.0101 31.9016C41.0187 31.1491 40.8739 30.4025 40.5842 29.7082C40.2943 29.0137 39.8661 28.3862 39.3253 27.8639C38.8022 27.3248 38.1759 26.8973 37.4839 26.6071C36.7919 26.3166 36.0484 26.1696 35.2983 26.1746H19.2539V21.252H35.3142C38.126 21.2688 40.8179 22.3963 42.8062 24.3898C44.7943 26.3834 45.9188 29.0825 45.9356 31.9016C45.9528 34.0598 45.2966 36.1691 44.0586 37.9343C42.9191 39.6234 41.3134 40.9427 39.4377 41.7309C37.5804 42.3216 35.6422 42.6148 33.6938 42.5998H24.0672V53.8609Z" fill="url(#paint1_linear_125_568)"/>
<path d="M45.8225 53.4582H40.2068L35.875 45.8811C37.5888 45.7759 39.2793 45.4293 40.8968 44.8516L45.8225 53.4582Z" fill="url(#paint2_linear_125_568)"/>
<path d="M57.5352 22.5223L60.8563 24.3724L64.1776 22.5223V18.6131L60.8563 16.6826L57.5352 18.6131V22.5223Z" fill="url(#paint3_linear_125_568)"/>
<defs>
<linearGradient id="paint0_linear_125_568" x1="64.1847" y1="18.6173" x2="-3.979" y2="45.8031" gradientUnits="userSpaceOnUse">
<stop stop-color="#C200FB"/>
<stop offset="0.489658" stop-color="#3772FF"/>
<stop offset="0.489758" stop-color="#3773FE"/>
<stop offset="1" stop-color="#5AC4BE"/>
</linearGradient>
<linearGradient id="paint1_linear_125_568" x1="64.1854" y1="18.618" x2="-3.97832" y2="45.8038" gradientUnits="userSpaceOnUse">
<stop stop-color="#C200FB"/>
<stop offset="0.489658" stop-color="#3772FF"/>
<stop offset="0.489758" stop-color="#3773FE"/>
<stop offset="1" stop-color="#5AC4BE"/>
</linearGradient>
<linearGradient id="paint2_linear_125_568" x1="64.1845" y1="18.6175" x2="-3.97922" y2="45.8033" gradientUnits="userSpaceOnUse">
<stop stop-color="#C200FB"/>
<stop offset="0.489658" stop-color="#3772FF"/>
<stop offset="0.489758" stop-color="#3773FE"/>
<stop offset="1" stop-color="#5AC4BE"/>
</linearGradient>
<linearGradient id="paint3_linear_125_568" x1="64.1849" y1="18.6175" x2="-3.97888" y2="45.8033" gradientUnits="userSpaceOnUse">
<stop stop-color="#C200FB"/>
<stop offset="0.489658" stop-color="#3772FF"/>
<stop offset="0.489758" stop-color="#3773FE"/>
<stop offset="1" stop-color="#5AC4BE"/>
</linearGradient>
</defs>
</svg>
