<svg width="272" height="75" viewBox="0 0 272 75" fill="none" xmlns="http://www.w3.org/2000/svg">
<g clip-path="url(#clip0_218_1206)">
<path fill-rule="evenodd" clip-rule="evenodd" d="M93.4866 45.8968L90.1335 40.0891H85.2239V45.8968H82.3359V28.4582H91.0318C92.0919 28.4498 93.1339 28.7332 94.0444 29.2775C94.9549 29.8221 95.6988 30.6066 96.1955 31.5457C96.6919 32.4848 96.9217 33.5425 96.8601 34.6036C96.7982 35.6648 96.4473 36.6886 95.8453 37.5634C95.2165 38.4914 94.3293 39.2132 93.2941 39.6389L96.8721 45.8968H93.4866ZM91.0318 31.4182H85.2239V37.2096H91.0318C91.4114 37.2093 91.7868 37.1307 92.1347 36.9784C92.4824 36.8264 92.7952 36.6036 93.0534 36.3248C93.4533 35.9177 93.7248 35.4018 93.8343 34.8411C93.9438 34.2805 93.8864 33.6998 93.6693 33.1716C93.4519 32.6434 93.0847 32.1909 92.6128 31.8705C92.1411 31.5502 91.5855 31.3761 91.0159 31.37L91.0318 31.4182ZM121.95 28.4582L113.237 45.8968H116.479L121.95 34.9734L127.405 45.8968H130.646L121.95 28.4582ZM158.659 28.4582H154.969L150.011 34.893L145.069 28.4582H141.363L148.631 37.7566V45.8968H151.519V37.6118L158.659 28.4582ZM173.452 28.4582H179.244C181.545 28.475 183.747 29.3991 185.374 31.0307C187.001 32.6621 187.923 34.8702 187.94 37.1775C187.927 39.4861 187.007 41.6964 185.379 43.3289C183.751 44.9614 181.546 45.8841 179.244 45.8968H173.452V28.4582ZM179.244 42.9366C180.778 42.9325 182.249 42.3191 183.335 41.2309C184.42 40.1427 185.031 38.6682 185.036 37.1291C185.019 35.5941 184.403 34.1266 183.321 33.0411C182.238 31.9557 180.775 31.3384 179.244 31.3216H176.323V42.9366H179.244ZM207.241 28.4582H204.353V45.8968H207.241V28.4582ZM238.143 38.6091C238.159 39.5684 237.978 40.5207 237.611 41.4066C237.244 42.2923 236.7 43.0927 236.008 43.7571C234.995 44.7734 233.705 45.4652 232.3 45.745C230.892 46.0246 229.437 45.8796 228.113 45.3282C226.79 44.7768 225.66 43.8439 224.866 42.6477C224.072 41.4516 223.651 40.0459 223.654 38.6091V28.4582H226.542V38.6091C226.542 39.7655 227.001 40.8743 227.817 41.6921C228.63 42.5096 229.736 42.9689 230.89 42.9689C232.044 42.9689 233.15 42.5096 233.966 41.6921C234.78 40.8743 235.238 39.7655 235.238 38.6091V28.4582H238.143V38.6091ZM257.444 45.8968V35.4723L263.267 41.2957L269.061 35.4723V45.8968H271.996V28.4582L263.267 37.1775L254.572 28.4582V45.8968H257.444Z" fill="#F1F1F2"/>
<path d="M60.8883 27.9114V53.8441L32.1207 70.4943L3.33724 53.8441V20.5273L32.1207 3.86093L54.23 16.6664L57.5672 14.7359L32.1207 0L0 18.5969V55.7746L32.1207 74.3714L64.2416 55.7746V25.9809L60.8883 27.9114Z" fill="url(#paint0_linear_218_1206)"/>
<path d="M24.0672 53.8609H19.2539V37.6771H35.2983C36.8163 37.6602 38.2665 37.0448 39.3355 35.9639C40.4045 34.8832 41.006 33.4239 41.0101 31.9016C41.0187 31.1491 40.8739 30.4025 40.5842 29.7082C40.2943 29.0137 39.8661 28.3862 39.3253 27.8639C38.8022 27.3248 38.1759 26.8973 37.4839 26.6071C36.7919 26.3166 36.0484 26.1696 35.2983 26.1746H19.2539V21.252H35.3142C38.126 21.2688 40.8179 22.3963 42.8062 24.3898C44.7943 26.3834 45.9188 29.0825 45.9356 31.9016C45.9528 34.0598 45.2966 36.1691 44.0586 37.9343C42.9191 39.6234 41.3134 40.9427 39.4377 41.7309C37.5804 42.3216 35.6422 42.6148 33.6938 42.5998H24.0672V53.8609Z" fill="url(#paint1_linear_218_1206)"/>
<path d="M45.8225 53.4582H40.2068L35.875 45.8811C37.5888 45.7759 39.2793 45.4293 40.8968 44.8516L45.8225 53.4582Z" fill="url(#paint2_linear_218_1206)"/>
<path d="M57.5352 22.5223L60.8563 24.3724L64.1776 22.5223V18.6131L60.8563 16.6826L57.5352 18.6131V22.5223Z" fill="url(#paint3_linear_218_1206)"/>
</g>
<defs>
<linearGradient id="paint0_linear_218_1206" x1="64.1847" y1="18.6173" x2="-3.979" y2="45.8031" gradientUnits="userSpaceOnUse">
<stop stop-color="#C200FB"/>
<stop offset="0.489658" stop-color="#3772FF"/>
<stop offset="0.489758" stop-color="#3773FE"/>
<stop offset="1" stop-color="#5AC4BE"/>
</linearGradient>
<linearGradient id="paint1_linear_218_1206" x1="64.1854" y1="18.618" x2="-3.97832" y2="45.8038" gradientUnits="userSpaceOnUse">
<stop stop-color="#C200FB"/>
<stop offset="0.489658" stop-color="#3772FF"/>
<stop offset="0.489758" stop-color="#3773FE"/>
<stop offset="1" stop-color="#5AC4BE"/>
</linearGradient>
<linearGradient id="paint2_linear_218_1206" x1="64.1845" y1="18.6175" x2="-3.97922" y2="45.8033" gradientUnits="userSpaceOnUse">
<stop stop-color="#C200FB"/>
<stop offset="0.489658" stop-color="#3772FF"/>
<stop offset="0.489758" stop-color="#3773FE"/>
<stop offset="1" stop-color="#5AC4BE"/>
</linearGradient>
<linearGradient id="paint3_linear_218_1206" x1="64.1849" y1="18.6175" x2="-3.97888" y2="45.8033" gradientUnits="userSpaceOnUse">
<stop stop-color="#C200FB"/>
<stop offset="0.489658" stop-color="#3772FF"/>
<stop offset="0.489758" stop-color="#3773FE"/>
<stop offset="1" stop-color="#5AC4BE"/>
</linearGradient>
<clipPath id="clip0_218_1206">
<rect width="272" height="75" fill="white"/>
</clipPath>
</defs>
</svg>
