<svg width="112" height="129" viewBox="0 0 112 129" fill="none" xmlns="http://www.w3.org/2000/svg">
<g clip-path="url(#clip0_418_303)">
<path d="M43.9186 29.3478C42.5211 29.1482 42.4545 29.0816 43.12 29.0151C44.3844 28.8154 47.3125 29.0816 49.3755 29.5474C54.1669 30.6788 58.4926 33.6069 63.0844 38.731L64.2822 40.1285L66.0125 39.8624C73.3993 38.6645 80.9857 39.5962 87.3078 42.5243C89.038 43.3228 91.7665 44.92 92.0992 45.3193C92.2323 45.4524 92.4319 46.3175 92.565 47.1826C93.0309 50.3104 92.8312 52.6395 91.833 54.4363C91.3006 55.4346 91.3006 55.7007 91.6334 56.5659C91.8996 57.2313 92.6981 57.6972 93.4302 57.6972C95.0273 57.6972 96.691 55.1684 97.4896 51.6413L97.8223 50.2438L98.4212 50.9093C101.815 54.7025 104.477 59.9598 104.876 63.6865L105.009 64.6847L104.411 63.8196C103.412 62.289 102.481 61.2908 101.216 60.4256C98.9536 58.895 96.5579 58.4292 90.2359 58.0965C84.5128 57.7637 81.2519 57.2979 78.0576 56.2331C72.6007 54.4363 69.8057 52.1072 63.3505 43.5225C60.489 39.7293 58.6922 37.6663 56.8954 35.936C52.9691 32.1428 49.0428 30.1464 43.9186 29.3478Z" fill="#FF007A"/>
<path d="M93.4995 37.7994C93.6326 35.2706 93.9654 33.6069 94.6974 32.0763C94.9636 31.4773 95.2298 30.9449 95.2963 30.9449C95.3629 30.9449 95.2298 31.4108 95.0302 31.9432C94.4978 33.4072 94.4312 35.4702 94.764 37.7994C95.2298 40.794 95.4294 41.1933 98.6237 44.4542C100.088 45.9848 101.818 47.9146 102.484 48.7132L103.615 50.1773L102.484 49.1125C101.086 47.7815 97.8917 45.2527 97.1597 44.92C96.6938 44.6538 96.6273 44.6538 96.2946 44.9865C96.0284 45.2527 95.9618 45.652 95.9618 47.5819C95.8953 50.5766 95.496 52.4399 94.4978 54.3698C93.9654 55.368 93.8988 55.1684 94.3647 54.037C94.6974 53.1719 94.764 52.7726 94.764 49.9111C94.764 44.1214 94.0985 42.7239 90.0391 40.3947C89.0408 39.7958 87.3106 38.9307 86.3124 38.4649C85.2476 37.999 84.449 37.5997 84.5156 37.5997C84.6487 37.4666 88.575 38.5979 90.1056 39.2634C92.4348 40.1951 92.8341 40.2616 93.1003 40.1951C93.2999 39.9955 93.433 39.4631 93.4995 37.7994Z" fill="#FF007A"/>
<path d="M46.6463 47.7149C43.8513 43.8552 42.0545 37.8659 42.4538 33.4071L42.5869 32.0096L43.2524 32.1427C44.4503 32.3424 46.5132 33.141 47.5115 33.7399C50.1734 35.337 51.3712 37.5331 52.5025 42.99C52.8353 44.5872 53.3011 46.4505 53.5008 47.0495C53.8335 48.0477 55.0979 50.3768 56.1627 51.8409C56.8947 52.9057 56.4289 53.438 54.7652 53.3049C52.2364 53.0388 48.8424 50.7096 46.6463 47.7149Z" fill="#FF007A"/>
<path d="M90.1083 76.6633C76.9318 71.3394 72.2734 66.7476 72.2734 58.9615C72.2734 57.8302 72.34 56.8986 72.34 56.8986C72.4065 56.8986 72.8724 57.2978 73.4713 57.7637C76.1332 59.8932 79.1279 60.8249 87.4463 62.0227C92.3043 62.7548 95.0993 63.2872 97.6282 64.1523C105.68 66.8142 110.672 72.2711 111.869 79.6579C112.202 81.7874 112.002 85.8469 111.47 87.9764C111.004 89.6401 109.673 92.7013 109.341 92.7678C109.274 92.7678 109.141 92.4351 109.141 91.9027C109.008 89.1077 107.61 86.4458 105.281 84.3828C102.486 81.9871 98.8926 80.1903 90.1083 76.6633Z" fill="#FF007A"/>
<path d="M80.789 78.8593C80.6559 77.861 80.3231 76.5966 80.1235 76.0643L79.7907 75.066L80.3897 75.7981C81.2548 76.7963 81.9203 77.9941 82.5192 79.6578C82.985 80.9222 82.985 81.3215 82.985 83.3845C82.985 85.381 82.9185 85.8468 82.5192 86.9781C81.8537 88.7749 81.0551 90.0393 79.7242 91.4368C77.3285 93.8991 74.2007 95.23 69.742 95.829C68.9434 95.8955 66.6808 96.0952 64.6844 96.2283C59.6933 96.4944 56.3659 97.0268 53.3712 98.0916C52.972 98.2247 52.5727 98.3578 52.5061 98.2912C52.373 98.1581 54.436 96.9603 56.0997 96.1617C58.4289 95.0304 60.8246 94.4315 66.0819 93.4998C68.6772 93.1005 71.3392 92.5681 72.0046 92.3019C78.5929 90.2389 81.8537 85.1148 80.789 78.8593Z" fill="#FF007A"/>
<path d="M86.8471 89.5735C85.1169 85.7803 84.7176 82.1867 85.6493 78.7928C85.7824 78.4601 85.9155 78.1273 86.0486 78.1273C86.1817 78.1273 86.581 78.327 86.9802 78.5932C87.7788 79.1255 89.4425 80.0572 93.7016 82.3864C99.0919 85.3145 102.153 87.5771 104.283 90.1725C106.146 92.4351 107.277 95.0305 107.81 98.2248C108.142 100.022 107.943 104.347 107.477 106.144C106.013 111.801 102.686 116.326 97.8275 118.921C97.0955 119.32 96.4966 119.587 96.43 119.587C96.3635 119.587 96.6297 118.921 97.029 118.123C98.6261 114.729 98.8258 111.468 97.6279 107.808C96.8959 105.545 95.3653 102.817 92.3041 98.2248C88.6439 92.9009 87.7788 91.5034 86.8471 89.5735Z" fill="#FF007A"/>
<path d="M37.2686 109.937C42.1931 105.811 48.249 102.883 53.839 101.952C56.2347 101.552 60.2276 101.685 62.4237 102.284C65.9507 103.216 69.145 105.212 70.8087 107.675C72.4059 110.07 73.1379 112.133 73.8699 116.725C74.1361 118.522 74.4688 120.385 74.5354 120.785C75.0678 123.18 76.1325 125.044 77.4635 126.042C79.5265 127.572 83.1201 127.639 86.6471 126.308C87.246 126.108 87.7784 125.909 87.7784 125.975C87.9115 126.108 86.1147 127.306 84.9168 127.905C83.2532 128.77 81.9222 129.036 80.1254 129.036C76.9311 129.036 74.2026 127.373 72.0066 124.045C71.5407 123.38 70.6091 121.45 69.8105 119.653C67.4813 114.263 66.2835 112.666 63.555 110.869C61.1593 109.338 58.0981 109.006 55.7689 110.137C52.7077 111.601 51.9091 115.527 54.0387 117.923C54.9038 118.921 56.5009 119.72 57.8319 119.919C60.2941 120.252 62.4237 118.322 62.4237 115.86C62.4237 114.263 61.8247 113.331 60.2276 112.599C58.0981 111.667 55.7689 112.732 55.8354 114.795C55.8354 115.66 56.2347 116.193 57.0999 116.592C57.6322 116.858 57.6322 116.858 57.2329 116.792C55.3031 116.392 54.8372 113.997 56.3678 112.466C58.2312 110.603 62.1575 111.401 63.4884 113.997C64.0208 115.061 64.0874 117.191 63.6215 118.522C62.4902 121.45 59.2959 122.981 56.0351 122.115C53.839 121.517 52.9073 120.918 50.2454 118.189C45.5871 113.398 43.7903 112.466 37.1355 111.468L35.8711 111.268L37.2686 109.937Z" fill="#FF007A"/>
<path fill-rule="evenodd" clip-rule="evenodd" d="M2.26559 2.86156C17.7712 21.6946 41.6619 50.9756 42.8598 52.5728C43.858 53.9037 43.4587 55.1682 41.795 56.0998C40.8633 56.6322 38.9334 57.1646 38.0018 57.1646C36.937 57.1646 35.6726 56.6322 34.8075 55.7671C34.2085 55.1682 31.6132 51.3749 25.757 42.2579C21.2983 35.2703 17.505 29.4807 17.4385 29.4141C17.1723 29.281 17.1723 29.281 25.2911 43.7885C30.4153 52.9055 32.079 56.1664 32.079 56.5657C32.079 57.4308 31.8128 57.8966 30.7481 59.0945C28.9513 61.0909 28.1527 63.3535 27.5538 68.0784C26.8883 73.3357 25.0915 77.0624 19.9673 83.3844C16.9727 87.1111 16.5068 87.7766 15.7748 89.3072C14.8431 91.1705 14.5769 92.2353 14.4438 94.631C14.3107 97.1598 14.5769 98.757 15.309 101.153C15.9744 103.282 16.7065 104.68 18.5033 107.408C20.0339 109.804 20.9655 111.601 20.9655 112.266C20.9655 112.799 21.0986 112.799 23.4943 112.266C29.2175 110.935 33.9424 108.673 36.5377 105.878C38.1349 104.147 38.5342 103.216 38.5342 100.82C38.5342 99.2894 38.4676 98.9566 38.0683 98.025C37.4028 96.5609 36.1384 95.363 33.41 93.4997C29.8164 91.0374 28.2858 89.041 27.8865 86.3791C27.5538 84.1165 27.953 82.5859 29.9495 78.3933C32.0125 74.0677 32.5448 72.2709 32.8776 67.8788C33.0772 65.0838 33.41 63.9525 34.2085 63.0873C35.0737 62.1557 35.8057 61.8229 37.8687 61.5567C41.2626 61.0909 43.4587 60.2258 45.1889 58.5621C46.7195 57.1646 47.385 55.7671 47.4516 53.7041L47.5181 52.1735L46.653 51.2418C43.5252 47.6482 0.202604 0 0.00296008 0C-0.0635877 0 1.00118 1.26441 2.26559 2.86156ZM22.6958 97.4926C23.4278 96.2282 23.0285 94.631 21.8306 93.8324C20.6993 93.1004 18.9691 93.4332 18.9691 94.4314C18.9691 94.6976 19.1022 94.9637 19.5015 95.0968C20.1004 95.4296 20.167 95.7623 19.7011 96.4944C19.2353 97.2264 19.2353 97.8919 19.8342 98.3577C20.7659 99.0897 22.0303 98.6904 22.6958 97.4926Z" fill="#FF007A"/>
<path fill-rule="evenodd" clip-rule="evenodd" d="M49.6472 62.4886C48.0501 62.9544 46.5195 64.6847 46.0536 66.4149C45.7874 67.4797 45.9205 69.4096 46.3864 70.0085C47.1184 70.9402 47.7839 71.2064 49.6472 71.2064C53.3074 71.2064 56.4351 69.6092 56.7678 67.6793C57.1006 66.0822 55.7031 63.8861 53.7732 62.8879C52.775 62.3555 50.712 62.1559 49.6472 62.4886ZM53.9063 65.816C54.4387 65.0174 54.239 64.1523 53.2408 63.5534C51.444 62.4221 48.7156 63.3537 48.7156 65.084C48.7156 65.9491 50.1131 66.8808 51.444 66.8808C52.3091 66.8808 53.507 66.3484 53.9063 65.816Z" fill="#FF007A"/>
</g>
<defs>
<clipPath id="clip0_418_303">
<rect width="112" height="128.97" fill="white"/>
</clipPath>
</defs>
</svg>
